<svg width="35" height="36" viewBox="0 0 35 36" fill="none" xmlns="http://www.w3.org/2000/svg">
<path d="M16.3195 12.7582H16.3253M18.6128 9.17214V7.97679C18.6128 7.65976 18.492 7.35572 18.277 7.13154C18.0619 6.90737 17.7703 6.78143 17.4662 6.78143H15.1729C14.8688 6.78143 14.5772 6.90737 14.3621 7.13154C14.1471 7.35572 14.0263 7.65976 14.0263 7.97679V9.17214M22.0527 13.3559C20.3515 14.5267 18.358 15.1509 16.3195 15.1509C14.2811 15.1509 12.2876 14.5267 10.5864 13.3559M11.733 9.17214H20.906C21.5393 9.17214 22.0527 9.70732 22.0527 10.3675V16.3443C22.0527 17.0044 21.5393 17.5396 20.906 17.5396H11.733C11.0998 17.5396 10.5864 17.0044 10.5864 16.3443V10.3675C10.5864 9.70732 11.0998 9.17214 11.733 9.17214Z" stroke="#ffffff" stroke-width="1.00962" stroke-linecap="round" stroke-linejoin="round"/>
<g filter="url(#filter0_d_13_677)">
<path d="M28.9325 25.9071L23.4542 20.196M26.3844 12.6254C26.3844 18.4936 21.8212 23.2508 16.1922 23.2508C10.5632 23.2508 6 18.4936 6 12.6254C6 6.75714 10.5632 2 16.1922 2C21.8212 2 26.3844 6.75714 26.3844 12.6254Z" stroke="#ffffff" stroke-width="2.39071" stroke-linecap="round" stroke-linejoin="round" shape-rendering="crispEdges"/>
</g>
<defs>
<filter id="filter0_d_13_677" x="0.804688" y="0.804626" width="33.3232" height="34.2979" filterUnits="userSpaceOnUse" color-interpolation-filters="sRGB">
<feFlood flood-opacity="0" result="BackgroundImageFix"/>
<feColorMatrix in="SourceAlpha" type="matrix" values="0 0 0 0 0 0 0 0 0 0 0 0 0 0 0 0 0 0 127 0" result="hardAlpha"/>
<feOffset dy="4"/>
<feGaussianBlur stdDeviation="2"/>
<feComposite in2="hardAlpha" operator="out"/>
<feColorMatrix type="matrix" values="0 0 0 0 0 0 0 0 0 0 0 0 0 0 0 0 0 0 0.25 0"/>
<feBlend mode="normal" in2="BackgroundImageFix" result="effect1_dropShadow_13_677"/>
<feBlend mode="normal" in="SourceGraphic" in2="effect1_dropShadow_13_677" result="shape"/>
</filter>
</defs>
</svg>
